{
	"asset":{
		"generator":"Khronos glTF Blender I/O v3.6.27",
		"version":"2.0"
	},
	"scene":0,
	"scenes":[
		{
			"name":"Scene",
			"nodes":[
				0
			]
		}
	],
	"nodes":[
		{
			"mesh":0,
			"name":"Curve",
			"rotation":[
				0.5,
				0.5,
				-0.5,
				0.5
			],
			"scale":[
				0.5761239528656006,
				0.5761239528656006,
				0.5761239528656006
			],
			"translation":[
				-0.0018820000113919377,
				-0.002424779813736677,
				0
			]
		}
	],
	"animations":[
		{
			"channels":[
				{
					"sampler":0,
					"target":{
						"node":0,
						"path":"rotation"
					}
				}
			],
			"name":"CurveAction",
			"samplers":[
				{
					"input":4,
					"interpolation":"LINEAR",
					"output":5
				}
			]
		}
	],
	"materials":[
		{
			"doubleSided":true,
			"name":"SVGMat.001",
			"pbrMetallicRoughness":{
				"baseColorFactor":[
					0.09080605953931808,
					0.030515499413013458,
					0.08792102336883545,
					1
				],
				"metallicFactor":0,
				"roughnessFactor":0.4000000059604645
			}
		}
	],
	"meshes":[
		{
			"name":"Curve",
			"primitives":[
				{
					"attributes":{
						"POSITION":0,
						"NORMAL":1,
						"TEXCOORD_0":2
					},
					"indices":3,
					"material":0
				}
			]
		}
	],
	"accessors":[
		{
			"bufferView":0,
			"componentType":5126,
			"count":42516,
			"max":[
				1.6796956062316895,
				4.2517805099487305,
				0.5503421425819397
			],
			"min":[
				-1.8264260292053223,
				-4.1617937088012695,
				-0.7648279070854187
			],
			"type":"VEC3"
		},
		{
			"bufferView":1,
			"componentType":5126,
			"count":42516,
			"type":"VEC3"
		},
		{
			"bufferView":2,
			"componentType":5126,
			"count":42516,
			"type":"VEC2"
		},
		{
			"bufferView":3,
			"componentType":5123,
			"count":125430,
			"type":"SCALAR"
		},
		{
			"bufferView":4,
			"componentType":5126,
			"count":121,
			"max":[
				2.0166666666666666
			],
			"min":[
				0.016666666666666666
			],
			"type":"SCALAR"
		},
		{
			"bufferView":5,
			"componentType":5126,
			"count":121,
			"type":"VEC4"
		}
	],
	"bufferViews":[
		{
			"buffer":0,
			"byteLength":510192,
			"byteOffset":0,
			"target":34962
		},
		{
			"buffer":0,
			"byteLength":510192,
			"byteOffset":510192,
			"target":34962
		},
		{
			"buffer":0,
			"byteLength":340128,
			"byteOffset":1020384,
			"target":34962
		},
		{
			"buffer":0,
			"byteLength":250860,
			"byteOffset":1360512,
			"target":34963
		},
		{
			"buffer":0,
			"byteLength":484,
			"byteOffset":1611372
		},
		{
			"buffer":0,
			"byteLength":1936,
			"byteOffset":1611856
		}
	],
	"buffers":[
		{
			"byteLength":1613792,
			"uri":"bullshark.bin"
		}
	]
}
