{
	"asset":{
		"generator":"Khronos glTF Blender I/O v3.6.27",
		"version":"2.0"
	},
	"extensionsUsed":[
		"KHR_materials_specular",
		"KHR_materials_ior"
	],
	"scene":0,
	"scenes":[
		{
			"name":"Scene",
			"nodes":[
				1
			]
		}
	],
	"nodes":[
		{
			"mesh":0,
			"name":"Circle",
			"rotation":[
				-0.1414438635110855,
				-0.34647247195243835,
				-0.6928157210350037,
				0.6164063811302185
			],
			"translation":[
				0.06626585125923157,
				1.1126081943511963,
				0.02750939130783081
			]
		},
		{
			"children":[
				0
			],
			"mesh":1,
			"name":"Circle.001",
			"translation":[
				0.0835210382938385,
				0,
				0.9294302463531494
			]
		}
	],
	"animations":[
		{
			"channels":[
				{
					"sampler":0,
					"target":{
						"node":1,
						"path":"rotation"
					}
				}
			],
			"name":"Circle.001Action",
			"samplers":[
				{
					"input":8,
					"interpolation":"LINEAR",
					"output":9
				}
			]
		}
	],
	"materials":[
		{
			"doubleSided":true,
			"extensions":{
				"KHR_materials_specular":{
					"specularColorFactor":[
						2.371357614441398,
						2.371357614441398,
						2.371357614441398
					]
				},
				"KHR_materials_ior":{
					"ior":1.4500000476837158
				}
			},
			"name":"Material.004",
			"pbrMetallicRoughness":{
				"baseColorFactor":[
					0.4769885241985321,
					0.4769885241985321,
					0.4769885241985321,
					1
				],
				"roughnessFactor":0.05433065816760063
			}
		},
		{
			"doubleSided":true,
			"name":"Shedua.001",
			"pbrMetallicRoughness":{}
		}
	],
	"meshes":[
		{
			"name":"Circle",
			"primitives":[
				{
					"attributes":{
						"POSITION":0,
						"NORMAL":1,
						"TEXCOORD_0":2
					},
					"indices":3,
					"material":0
				}
			]
		},
		{
			"name":"Mesh",
			"primitives":[
				{
					"attributes":{
						"POSITION":4,
						"NORMAL":5,
						"TEXCOORD_0":6
					},
					"indices":7,
					"material":1
				}
			]
		}
	],
	"accessors":[
		{
			"bufferView":0,
			"componentType":5126,
			"count":18264,
			"max":[
				0.9972243905067444,
				0.2635827660560608,
				0.9976356625556946
			],
			"min":[
				-0.9972243905067444,
				-0.21438278257846832,
				-0.9972677230834961
			],
			"type":"VEC3"
		},
		{
			"bufferView":1,
			"componentType":5126,
			"count":18264,
			"type":"VEC3"
		},
		{
			"bufferView":2,
			"componentType":5126,
			"count":18264,
			"type":"VEC2"
		},
		{
			"bufferView":3,
			"componentType":5123,
			"count":103584,
			"type":"SCALAR"
		},
		{
			"bufferView":4,
			"componentType":5126,
			"count":1010,
			"max":[
				0.6143712997436523,
				0.11724819988012314,
				0.6143958568572998
			],
			"min":[
				-0.6143712997436523,
				0.0005358880152925849,
				-0.6143958568572998
			],
			"type":"VEC3"
		},
		{
			"bufferView":5,
			"componentType":5126,
			"count":1010,
			"type":"VEC3"
		},
		{
			"bufferView":6,
			"componentType":5126,
			"count":1010,
			"type":"VEC2"
		},
		{
			"bufferView":7,
			"componentType":5123,
			"count":6048,
			"type":"SCALAR"
		},
		{
			"bufferView":8,
			"componentType":5126,
			"count":300,
			"max":[
				5
			],
			"min":[
				0.016666666666666666
			],
			"type":"SCALAR"
		},
		{
			"bufferView":9,
			"componentType":5126,
			"count":300,
			"type":"VEC4"
		}
	],
	"bufferViews":[
		{
			"buffer":0,
			"byteLength":219168,
			"byteOffset":0,
			"target":34962
		},
		{
			"buffer":0,
			"byteLength":219168,
			"byteOffset":219168,
			"target":34962
		},
		{
			"buffer":0,
			"byteLength":146112,
			"byteOffset":438336,
			"target":34962
		},
		{
			"buffer":0,
			"byteLength":207168,
			"byteOffset":584448,
			"target":34963
		},
		{
			"buffer":0,
			"byteLength":12120,
			"byteOffset":791616,
			"target":34962
		},
		{
			"buffer":0,
			"byteLength":12120,
			"byteOffset":803736,
			"target":34962
		},
		{
			"buffer":0,
			"byteLength":8080,
			"byteOffset":815856,
			"target":34962
		},
		{
			"buffer":0,
			"byteLength":12096,
			"byteOffset":823936,
			"target":34963
		},
		{
			"buffer":0,
			"byteLength":1200,
			"byteOffset":836032
		},
		{
			"buffer":0,
			"byteLength":4800,
			"byteOffset":837232
		}
	],
	"buffers":[
		{
			"byteLength":842032,
			"uri":"data:application/octet-stream;base64,"
		}
	]
}
