{
	"asset":{
		"generator":"Khronos glTF Blender I/O v3.6.27",
		"version":"2.0"
	},
	"scene":0,
	"scenes":[
		{
			"name":"Scene",
			"nodes":[
				0,
				1,
				2,
				3,
				4
			]
		}
	],
	"nodes":[
		{
			"mesh":0,
			"name":"dobj",
			"scale":[
				1.0029150247573853,
				1.0029150247573853,
				1.0029150247573853
			],
			"translation":[
				0,
				26.550643920898438,
				0
			]
		},
		{
			"mesh":1,
			"name":"Sphere",
			"scale":[
				5.0396294593811035,
				5.0396294593811035,
				5.0396294593811035
			],
			"translation":[
				0,
				26.48974609375,
				0
			]
		},
		{
			"mesh":2,
			"name":"Plane.003",
			"scale":[
				0.9131079912185669,
				0.9131079912185669,
				0.9131079912185669
			],
			"translation":[
				0,
				26.48974609375,
				0
			]
		},
		{
			"mesh":3,
			"name":"Circle",
			"rotation":[
				0.7071068286895752,
				0,
				0,
				0.7071068286895752
			],
			"scale":[
				12.447869300842285,
				12.447869300842285,
				10.798335075378418
			],
			"translation":[
				0,
				10.86740779876709,
				0
			]
		},
		{
			"mesh":4,
			"name":"Sphere.001",
			"scale":[
				3.1408400535583496,
				3.1408400535583496,
				3.1408400535583496
			],
			"translation":[
				0,
				24.7388973236084,
				0
			]
		}
	],
	"materials":[
		{
			"doubleSided":true,
			"name":"Material.002",
			"pbrMetallicRoughness":{}
		},
		{
			"doubleSided":true,
			"name":"Material.001",
			"pbrMetallicRoughness":{
				"baseColorFactor":[
					0.800000011920929,
					0.800000011920929,
					0.800000011920929,
					1
				],
				"metallicFactor":0.0727272629737854,
				"roughnessFactor":0.04090908169746399
			}
		},
		{
			"doubleSided":true,
			"name":"Material.003",
			"pbrMetallicRoughness":{
				"baseColorFactor":[
					1,
					0.969345211982727,
					0.4192991256713867,
					1
				],
				"metallicFactor":0.8661417365074158,
				"roughnessFactor":0.10629922151565552
			}
		}
	],
	"meshes":[
		{
			"name":"dmesh.002",
			"primitives":[
				{
					"attributes":{
						"POSITION":0,
						"NORMAL":1
					},
					"indices":2,
					"material":0
				}
			]
		},
		{
			"name":"Sphere.001",
			"primitives":[
				{
					"attributes":{
						"POSITION":3,
						"NORMAL":4,
						"TEXCOORD_0":5
					},
					"indices":6,
					"material":1
				}
			]
		},
		{
			"name":"Plane.005",
			"primitives":[
				{
					"attributes":{
						"POSITION":7,
						"NORMAL":8,
						"TEXCOORD_0":9
					},
					"indices":10,
					"material":2
				}
			]
		},
		{
			"name":"Circle",
			"primitives":[
				{
					"attributes":{
						"POSITION":11,
						"NORMAL":12,
						"TEXCOORD_0":13
					},
					"indices":14,
					"material":2
				}
			]
		},
		{
			"name":"Sphere.002",
			"primitives":[
				{
					"attributes":{
						"POSITION":15,
						"NORMAL":16,
						"TEXCOORD_0":17
					},
					"indices":18,
					"material":2
				}
			]
		}
	],
	"accessors":[
		{
			"bufferView":0,
			"componentType":5126,
			"count":3136,
			"max":[
				6.473832607269287,
				-1.5145450830459595,
				6.3148980140686035
			],
			"min":[
				-6.473836421966553,
				-2.5118520259857178,
				-6.317398548126221
			],
			"type":"VEC3"
		},
		{
			"bufferView":1,
			"componentType":5126,
			"count":3136,
			"type":"VEC3"
		},
		{
			"bufferView":2,
			"componentType":5123,
			"count":4032,
			"type":"SCALAR"
		},
		{
			"bufferView":3,
			"componentType":5126,
			"count":8799,
			"max":[
				0.9511488676071167,
				1.0220301151275635,
				0.9647493362426758
			],
			"min":[
				-1.0049208402633667,
				-0.9658554792404175,
				-0.9533201456069946
			],
			"type":"VEC3"
		},
		{
			"bufferView":4,
			"componentType":5126,
			"count":8799,
			"type":"VEC3"
		},
		{
			"bufferView":5,
			"componentType":5126,
			"count":8799,
			"type":"VEC2"
		},
		{
			"bufferView":6,
			"componentType":5123,
			"count":47616,
			"type":"SCALAR"
		},
		{
			"bufferView":7,
			"componentType":5126,
			"count":39060,
			"max":[
				7.374882221221924,
				-1.624840259552002,
				7.2014336585998535
			],
			"min":[
				-7.374876976013184,
				-5.556039333343506,
				-7.204153537750244
			],
			"type":"VEC3"
		},
		{
			"bufferView":8,
			"componentType":5126,
			"count":39060,
			"type":"VEC3"
		},
		{
			"bufferView":9,
			"componentType":5126,
			"count":39060,
			"type":"VEC2"
		},
		{
			"bufferView":10,
			"componentType":5123,
			"count":233856,
			"type":"SCALAR"
		},
		{
			"bufferView":11,
			"componentType":5126,
			"count":1664,
			"max":[
				0.95469069480896,
				0.10529423505067825,
				0.9870039224624634
			],
			"min":[
				-0.95469069480896,
				-0.11249423027038574,
				-0.9846252799034119
			],
			"type":"VEC3"
		},
		{
			"bufferView":12,
			"componentType":5126,
			"count":1664,
			"type":"VEC3"
		},
		{
			"bufferView":13,
			"componentType":5126,
			"count":1664,
			"type":"VEC2"
		},
		{
			"bufferView":14,
			"componentType":5123,
			"count":9984,
			"type":"SCALAR"
		},
		{
			"bufferView":15,
			"componentType":5126,
			"count":1491,
			"max":[
				0.8123213648796082,
				-0.8092350363731384,
				0.8123211860656738
			],
			"min":[
				-0.812321126461029,
				-1.1368062496185303,
				-0.8123215436935425
			],
			"type":"VEC3"
		},
		{
			"bufferView":16,
			"componentType":5126,
			"count":1491,
			"type":"VEC3"
		},
		{
			"bufferView":17,
			"componentType":5126,
			"count":1491,
			"type":"VEC2"
		},
		{
			"bufferView":18,
			"componentType":5123,
			"count":8064,
			"type":"SCALAR"
		}
	],
	"bufferViews":[
		{
			"buffer":0,
			"byteLength":37632,
			"byteOffset":0,
			"target":34962
		},
		{
			"buffer":0,
			"byteLength":37632,
			"byteOffset":37632,
			"target":34962
		},
		{
			"buffer":0,
			"byteLength":8064,
			"byteOffset":75264,
			"target":34963
		},
		{
			"buffer":0,
			"byteLength":105588,
			"byteOffset":83328,
			"target":34962
		},
		{
			"buffer":0,
			"byteLength":105588,
			"byteOffset":188916,
			"target":34962
		},
		{
			"buffer":0,
			"byteLength":70392,
			"byteOffset":294504,
			"target":34962
		},
		{
			"buffer":0,
			"byteLength":95232,
			"byteOffset":364896,
			"target":34963
		},
		{
			"buffer":0,
			"byteLength":468720,
			"byteOffset":460128,
			"target":34962
		},
		{
			"buffer":0,
			"byteLength":468720,
			"byteOffset":928848,
			"target":34962
		},
		{
			"buffer":0,
			"byteLength":312480,
			"byteOffset":1397568,
			"target":34962
		},
		{
			"buffer":0,
			"byteLength":467712,
			"byteOffset":1710048,
			"target":34963
		},
		{
			"buffer":0,
			"byteLength":19968,
			"byteOffset":2177760,
			"target":34962
		},
		{
			"buffer":0,
			"byteLength":19968,
			"byteOffset":2197728,
			"target":34962
		},
		{
			"buffer":0,
			"byteLength":13312,
			"byteOffset":2217696,
			"target":34962
		},
		{
			"buffer":0,
			"byteLength":19968,
			"byteOffset":2231008,
			"target":34963
		},
		{
			"buffer":0,
			"byteLength":17892,
			"byteOffset":2250976,
			"target":34962
		},
		{
			"buffer":0,
			"byteLength":17892,
			"byteOffset":2268868,
			"target":34962
		},
		{
			"buffer":0,
			"byteLength":11928,
			"byteOffset":2286760,
			"target":34962
		},
		{
			"buffer":0,
			"byteLength":16128,
			"byteOffset":2298688,
			"target":34963
		}
	],
	"buffers":[
		{
			"byteLength":2314816,
			"uri":"data:application/octet-stream;base64,"
		}
	]
}
