{
	"asset":{
		"generator":"Khronos glTF Blender I/O v3.6.27",
		"version":"2.0"
	},
	"extensionsUsed":[
		"KHR_materials_specular",
		"KHR_materials_ior",
		"KHR_materials_emissive_strength"
	],
	"scene":0,
	"scenes":[
		{
			"name":"Scene",
			"nodes":[
				0,
				1,
				2,
				3,
				4,
				5,
				6
			]
		}
	],
	"nodes":[
		{
			"mesh":0,
			"name":"Back",
			"scale":[
				0.3016551434993744,
				0.29928135871887207,
				0.29928135871887207
			],
			"translation":[
				0,
				0,
				0.07479067146778107
			]
		},
		{
			"mesh":1,
			"name":"Main_body",
			"scale":[
				0.29928135871887207,
				0.29928135871887207,
				0.29928135871887207
			],
			"translation":[
				0,
				0,
				0.07479067146778107
			]
		},
		{
			"mesh":2,
			"name":"Wheels_back",
			"scale":[
				0.5389423966407776,
				1,
				1
			],
			"translation":[
				-0.4786481559276581,
				0.22987179458141327,
				0.8107305765151978
			]
		},
		{
			"mesh":3,
			"name":"Wheels_front",
			"scale":[
				0.5389423966407776,
				1,
				1
			],
			"translation":[
				-0.4786481559276581,
				0.24146981537342072,
				-1.117854118347168
			]
		},
		{
			"mesh":4,
			"name":"Front_down",
			"scale":[
				0.6063717603683472,
				0.07857408374547958,
				0.08736170828342438
			],
			"translation":[
				0,
				0.23850184679031372,
				-1.521293044090271
			]
		},
		{
			"mesh":5,
			"name":"Front_up",
			"scale":[
				0.6146805286407471,
				0.07190912961959839,
				0.07190912961959839
			],
			"translation":[
				0,
				0.3883957266807556,
				-1.6360200643539429
			]
		},
		{
			"mesh":6,
			"name":"Plane",
			"scale":[
				1.124707579612732,
				1.709040641784668,
				1.744640827178955
			],
			"translation":[
				0,
				0,
				-0.153061643242836
			]
		}
	],
	"materials":[
		{
			"doubleSided":true,
			"name":"Black_base_color",
			"pbrMetallicRoughness":{
				"baseColorFactor":[
					0,
					0,
					0,
					1
				],
				"metallicFactor":0,
				"roughnessFactor":0.8858267664909363
			}
		},
		{
			"doubleSided":true,
			"emissiveFactor":[
				0.12228889018297195,
				0.5582008957862854,
				0.7356478571891785
			],
			"name":"Turn_signal_ights_blue",
			"pbrMetallicRoughness":{
				"baseColorFactor":[
					0.4570598602294922,
					0.08187814801931381,
					0.06411810219287872,
					1
				],
				"metallicFactor":0
			}
		},
		{
			"doubleSided":true,
			"name":"Turn_signal_ights_red",
			"pbrMetallicRoughness":{
				"baseColorFactor":[
					0.8000000715255737,
					0.027153877541422844,
					0.021181795746088028,
					1
				],
				"metallicFactor":0
			}
		},
		{
			"doubleSided":true,
			"name":"Turn_signal_border",
			"pbrMetallicRoughness":{
				"baseColorFactor":[
					0.11493311077356339,
					0.004419710021466017,
					0.004419710021466017,
					1
				],
				"metallicFactor":0
			}
		},
		{
			"doubleSided":true,
			"name":"Base_mainBody_color",
			"pbrMetallicRoughness":{
				"baseColorFactor":[
					0.1807204633951187,
					0.4385407269001007,
					0.4385407269001007,
					1
				],
				"roughnessFactor":0.35826772451400757
			}
		},
		{
			"doubleSided":true,
			"name":"Black_borders-lines",
			"pbrMetallicRoughness":{
				"baseColorFactor":[
					0,
					0,
					0,
					1
				],
				"metallicFactor":0,
				"roughnessFactor":0.7283464670181274
			}
		},
		{
			"doubleSided":true,
			"extensions":{
				"KHR_materials_specular":{
					"specularColorFactor":[
						0.38595318023109526,
						0.38595318023109526,
						0.38595318023109526
					]
				},
				"KHR_materials_ior":{
					"ior":1.850000023841858
				}
			},
			"name":"Window",
			"pbrMetallicRoughness":{
				"baseColorFactor":[
					0.020383870229125023,
					0.020383870229125023,
					0.020383870229125023,
					1
				],
				"metallicFactor":0,
				"roughnessFactor":0.17716535925865173
			}
		},
		{
			"doubleSided":true,
			"emissiveFactor":[
				0.5181375197767839,
				1,
				0.6062821606947201
			],
			"extensions":{
				"KHR_materials_emissive_strength":{
					"emissiveStrength":4.413886792350837
				}
			},
			"name":"White_light",
			"pbrMetallicRoughness":{
				"baseColorFactor":[
					0.05585432052612305,
					0.40687423944473267,
					0.4570598602294922,
					1
				],
				"metallicFactor":0,
				"roughnessFactor":0.5
			}
		},
		{
			"doubleSided":true,
			"name":"Wheels_color",
			"pbrMetallicRoughness":{
				"baseColorFactor":[
					0,
					0,
					0,
					1
				],
				"metallicFactor":0.08661417663097382,
				"roughnessFactor":0.16141733527183533
			}
		},
		{
			"doubleSided":true,
			"name":"Disks",
			"pbrMetallicRoughness":{
				"baseColorFactor":[
					0.2597953677177429,
					0.2597953677177429,
					0.2597953677177429,
					1
				],
				"roughnessFactor":0.5
			}
		},
		{
			"doubleSided":true,
			"emissiveFactor":[
				1,
				0.10716079920530319,
				0.00843123160302639
			],
			"extensions":{
				"KHR_materials_emissive_strength":{
					"emissiveStrength":1.100000023841858
				}
			},
			"name":"Turn_signal_ights_front_orange",
			"pbrMetallicRoughness":{
				"baseColorFactor":[
					0.800000011920929,
					0.800000011920929,
					0.800000011920929,
					1
				],
				"metallicFactor":0,
				"roughnessFactor":0.5
			}
		}
	],
	"meshes":[
		{
			"name":"Plane.002",
			"primitives":[
				{
					"attributes":{
						"POSITION":0,
						"NORMAL":1,
						"TEXCOORD_0":2
					},
					"indices":3,
					"material":0
				},
				{
					"attributes":{
						"POSITION":4,
						"NORMAL":5,
						"TEXCOORD_0":6
					},
					"indices":7,
					"material":1
				},
				{
					"attributes":{
						"POSITION":8,
						"NORMAL":9,
						"TEXCOORD_0":10
					},
					"indices":11,
					"material":2
				},
				{
					"attributes":{
						"POSITION":12,
						"NORMAL":13,
						"TEXCOORD_0":14
					},
					"indices":15,
					"material":3
				}
			]
		},
		{
			"name":"Plane",
			"primitives":[
				{
					"attributes":{
						"POSITION":16,
						"NORMAL":17,
						"TEXCOORD_0":18
					},
					"indices":19,
					"material":4
				},
				{
					"attributes":{
						"POSITION":20,
						"NORMAL":21,
						"TEXCOORD_0":22
					},
					"indices":23,
					"material":5
				},
				{
					"attributes":{
						"POSITION":24,
						"NORMAL":25,
						"TEXCOORD_0":26
					},
					"indices":27,
					"material":6
				},
				{
					"attributes":{
						"POSITION":28,
						"NORMAL":29,
						"TEXCOORD_0":30
					},
					"indices":31,
					"material":7
				}
			]
		},
		{
			"name":"Cylinder",
			"primitives":[
				{
					"attributes":{
						"POSITION":32,
						"NORMAL":33,
						"TEXCOORD_0":34
					},
					"indices":35,
					"material":8
				},
				{
					"attributes":{
						"POSITION":36,
						"NORMAL":37,
						"TEXCOORD_0":38
					},
					"indices":39,
					"material":9
				}
			]
		},
		{
			"name":"Cylinder",
			"primitives":[
				{
					"attributes":{
						"POSITION":40,
						"NORMAL":41,
						"TEXCOORD_0":42
					},
					"indices":35,
					"material":8
				},
				{
					"attributes":{
						"POSITION":43,
						"NORMAL":44,
						"TEXCOORD_0":45
					},
					"indices":39,
					"material":9
				}
			]
		},
		{
			"name":"Cube",
			"primitives":[
				{
					"attributes":{
						"POSITION":46,
						"NORMAL":47,
						"TEXCOORD_0":48
					},
					"indices":49,
					"material":0
				}
			]
		},
		{
			"name":"Cube.002",
			"primitives":[
				{
					"attributes":{
						"POSITION":50,
						"NORMAL":51,
						"TEXCOORD_0":52
					},
					"indices":53,
					"material":0
				},
				{
					"attributes":{
						"POSITION":54,
						"NORMAL":55,
						"TEXCOORD_0":56
					},
					"indices":57,
					"material":10
				},
				{
					"attributes":{
						"POSITION":58,
						"NORMAL":59,
						"TEXCOORD_0":60
					},
					"indices":61,
					"material":7
				}
			]
		},
		{
			"name":"Plane.003",
			"primitives":[
				{
					"attributes":{
						"POSITION":62,
						"NORMAL":63,
						"TEXCOORD_0":64
					},
					"indices":65
				}
			]
		}
	],
	"accessors":[
		{
			"bufferView":0,
			"componentType":5126,
			"count":854,
			"max":[
				1.9889051914215088,
				2.251725912094116,
				5.028433799743652
			],
			"min":[
				-1.9889051914215088,
				0.6741483807563782,
				3.862597703933716
			],
			"type":"VEC3"
		},
		{
			"bufferView":1,
			"componentType":5126,
			"count":854,
			"type":"VEC3"
		},
		{
			"bufferView":2,
			"componentType":5126,
			"count":854,
			"type":"VEC2"
		},
		{
			"bufferView":3,
			"componentType":5123,
			"count":1278,
			"type":"SCALAR"
		},
		{
			"bufferView":4,
			"componentType":5126,
			"count":40,
			"max":[
				1.9881891012191772,
				1.673498511314392,
				4.61329460144043
			],
			"min":[
				-1.9881891012191772,
				1.3449926376342773,
				4.447803020477295
			],
			"type":"VEC3"
		},
		{
			"bufferView":5,
			"componentType":5126,
			"count":40,
			"type":"VEC3"
		},
		{
			"bufferView":6,
			"componentType":5126,
			"count":40,
			"type":"VEC2"
		},
		{
			"bufferView":7,
			"componentType":5123,
			"count":60,
			"type":"SCALAR"
		},
		{
			"bufferView":8,
			"componentType":5126,
			"count":64,
			"max":[
				1.7387832403182983,
				1.6762378215789795,
				4.612637996673584
			],
			"min":[
				-1.7387832403182983,
				1.3426345586776733,
				4.5725932121276855
			],
			"type":"VEC3"
		},
		{
			"bufferView":9,
			"componentType":5126,
			"count":64,
			"type":"VEC3"
		},
		{
			"bufferView":10,
			"componentType":5126,
			"count":64,
			"type":"VEC2"
		},
		{
			"bufferView":11,
			"componentType":5123,
			"count":96,
			"type":"SCALAR"
		},
		{
			"bufferView":12,
			"componentType":5126,
			"count":176,
			"max":[
				1.9889051914215088,
				1.6955235004425049,
				4.614945411682129
			],
			"min":[
				-1.9889051914215088,
				1.3166358470916748,
				4.417788505554199
			],
			"type":"VEC3"
		},
		{
			"bufferView":13,
			"componentType":5126,
			"count":176,
			"type":"VEC3"
		},
		{
			"bufferView":14,
			"componentType":5126,
			"count":176,
			"type":"VEC2"
		},
		{
			"bufferView":15,
			"componentType":5123,
			"count":264,
			"type":"SCALAR"
		},
		{
			"bufferView":16,
			"componentType":5126,
			"count":2761,
			"max":[
				2.196610450744629,
				3.031614065170288,
				4.447192668914795
			],
			"min":[
				-2.196610450744629,
				0.5116575956344604,
				-6.450477600097656
			],
			"type":"VEC3"
		},
		{
			"bufferView":17,
			"componentType":5126,
			"count":2761,
			"type":"VEC3"
		},
		{
			"bufferView":18,
			"componentType":5126,
			"count":2761,
			"type":"VEC2"
		},
		{
			"bufferView":19,
			"componentType":5123,
			"count":5340,
			"type":"SCALAR"
		},
		{
			"bufferView":20,
			"componentType":5126,
			"count":384,
			"max":[
				2.1174094676971436,
				3.031614065170288,
				4.03088903427124
			],
			"min":[
				-2.1174094676971436,
				1.1805486679077148,
				-3.098301410675049
			],
			"type":"VEC3"
		},
		{
			"bufferView":21,
			"componentType":5126,
			"count":384,
			"type":"VEC3"
		},
		{
			"bufferView":22,
			"componentType":5126,
			"count":384,
			"type":"VEC2"
		},
		{
			"bufferView":23,
			"componentType":5123,
			"count":612,
			"type":"SCALAR"
		},
		{
			"bufferView":24,
			"componentType":5126,
			"count":284,
			"max":[
				1.9760937690734863,
				3.0157511234283447,
				3.9923763275146484
			],
			"min":[
				-1.9760937690734863,
				2.0699286460876465,
				-2.3983848094940186
			],
			"type":"VEC3"
		},
		{
			"bufferView":25,
			"componentType":5126,
			"count":284,
			"type":"VEC3"
		},
		{
			"bufferView":26,
			"componentType":5126,
			"count":284,
			"type":"VEC2"
		},
		{
			"bufferView":27,
			"componentType":5123,
			"count":420,
			"type":"SCALAR"
		},
		{
			"bufferView":28,
			"componentType":5126,
			"count":8,
			"max":[
				1.6878321170806885,
				2.0963902473449707,
				-5.850052833557129
			],
			"min":[
				-1.6878321170806885,
				1.6617518663406372,
				-5.915541172027588
			],
			"type":"VEC3"
		},
		{
			"bufferView":29,
			"componentType":5126,
			"count":8,
			"type":"VEC3"
		},
		{
			"bufferView":30,
			"componentType":5126,
			"count":8,
			"type":"VEC2"
		},
		{
			"bufferView":31,
			"componentType":5123,
			"count":12,
			"type":"SCALAR"
		},
		{
			"bufferView":32,
			"componentType":5126,
			"count":1088,
			"max":[
				2.0025250911712646,
				0.2262755185365677,
				0.2262755036354065
			],
			"min":[
				-0.2262755185365677,
				-0.2262755185365677,
				-0.22627553343772888
			],
			"type":"VEC3"
		},
		{
			"bufferView":33,
			"componentType":5126,
			"count":1088,
			"type":"VEC3"
		},
		{
			"bufferView":34,
			"componentType":5126,
			"count":1088,
			"type":"VEC2"
		},
		{
			"bufferView":35,
			"componentType":5123,
			"count":1944,
			"type":"SCALAR"
		},
		{
			"bufferView":36,
			"componentType":5126,
			"count":864,
			"max":[
				2.0025250911712646,
				0.16648072004318237,
				0.16648073494434357
			],
			"min":[
				-0.2262755185365677,
				-0.16648076474666595,
				-0.16648077964782715
			],
			"type":"VEC3"
		},
		{
			"bufferView":37,
			"componentType":5126,
			"count":864,
			"type":"VEC3"
		},
		{
			"bufferView":38,
			"componentType":5126,
			"count":864,
			"type":"VEC2"
		},
		{
			"bufferView":39,
			"componentType":5123,
			"count":1296,
			"type":"SCALAR"
		},
		{
			"bufferView":40,
			"componentType":5126,
			"count":1088,
			"max":[
				2.0025250911712646,
				0.2262755185365677,
				0.2262755036354065
			],
			"min":[
				-0.2262755185365677,
				-0.2262755185365677,
				-0.2262755036354065
			],
			"type":"VEC3"
		},
		{
			"bufferView":41,
			"componentType":5126,
			"count":1088,
			"type":"VEC3"
		},
		{
			"bufferView":42,
			"componentType":5126,
			"count":1088,
			"type":"VEC2"
		},
		{
			"bufferView":43,
			"componentType":5126,
			"count":864,
			"max":[
				2.0025250911712646,
				0.16648072004318237,
				0.16648073494434357
			],
			"min":[
				-0.2262755185365677,
				-0.16648074984550476,
				-0.16648073494434357
			],
			"type":"VEC3"
		},
		{
			"bufferView":44,
			"componentType":5126,
			"count":864,
			"type":"VEC3"
		},
		{
			"bufferView":45,
			"componentType":5126,
			"count":864,
			"type":"VEC2"
		},
		{
			"bufferView":46,
			"componentType":5126,
			"count":302,
			"max":[
				0.9720736742019653,
				0.534081220626831,
				1
			],
			"min":[
				-0.9720736742019653,
				-1,
				-4.201324939727783
			],
			"type":"VEC3"
		},
		{
			"bufferView":47,
			"componentType":5126,
			"count":302,
			"type":"VEC3"
		},
		{
			"bufferView":48,
			"componentType":5126,
			"count":302,
			"type":"VEC2"
		},
		{
			"bufferView":49,
			"componentType":5123,
			"count":684,
			"type":"SCALAR"
		},
		{
			"bufferView":50,
			"componentType":5126,
			"count":1096,
			"max":[
				0.982903778553009,
				1.0165456533432007,
				1
			],
			"min":[
				-0.982903778553009,
				-1.0013319253921509,
				-3.1165366172790527
			],
			"type":"VEC3"
		},
		{
			"bufferView":51,
			"componentType":5126,
			"count":1096,
			"type":"VEC3"
		},
		{
			"bufferView":52,
			"componentType":5126,
			"count":1096,
			"type":"VEC2"
		},
		{
			"bufferView":53,
			"componentType":5123,
			"count":1692,
			"type":"SCALAR"
		},
		{
			"bufferView":54,
			"componentType":5126,
			"count":16,
			"max":[
				0.9541102647781372,
				0.3777398467063904,
				-2.0037248134613037
			],
			"min":[
				-0.9541102647781372,
				-0.27420279383659363,
				-2.0038986206054688
			],
			"type":"VEC3"
		},
		{
			"bufferView":55,
			"componentType":5126,
			"count":16,
			"type":"VEC3"
		},
		{
			"bufferView":56,
			"componentType":5126,
			"count":16,
			"type":"VEC2"
		},
		{
			"bufferView":57,
			"componentType":5123,
			"count":24,
			"type":"SCALAR"
		},
		{
			"bufferView":58,
			"componentType":5126,
			"count":12,
			"max":[
				0.8577209711074829,
				0.37780773639678955,
				-2.0036444664001465
			],
			"min":[
				-0.8577209711074829,
				-0.27401015162467957,
				-2.003772020339966
			],
			"type":"VEC3"
		},
		{
			"bufferView":59,
			"componentType":5126,
			"count":12,
			"type":"VEC3"
		},
		{
			"bufferView":60,
			"componentType":5126,
			"count":12,
			"type":"VEC2"
		},
		{
			"bufferView":61,
			"componentType":5123,
			"count":24,
			"type":"SCALAR"
		},
		{
			"bufferView":62,
			"componentType":5126,
			"count":24,
			"max":[
				1,
				0,
				1
			],
			"min":[
				-1,
				-0.032490555197000504,
				-1
			],
			"type":"VEC3"
		},
		{
			"bufferView":63,
			"componentType":5126,
			"count":24,
			"type":"VEC3"
		},
		{
			"bufferView":64,
			"componentType":5126,
			"count":24,
			"type":"VEC2"
		},
		{
			"bufferView":65,
			"componentType":5123,
			"count":36,
			"type":"SCALAR"
		}
	],
	"bufferViews":[
		{
			"buffer":0,
			"byteLength":10248,
			"byteOffset":0,
			"target":34962
		},
		{
			"buffer":0,
			"byteLength":10248,
			"byteOffset":10248,
			"target":34962
		},
		{
			"buffer":0,
			"byteLength":6832,
			"byteOffset":20496,
			"target":34962
		},
		{
			"buffer":0,
			"byteLength":2556,
			"byteOffset":27328,
			"target":34963
		},
		{
			"buffer":0,
			"byteLength":480,
			"byteOffset":29884,
			"target":34962
		},
		{
			"buffer":0,
			"byteLength":480,
			"byteOffset":30364,
			"target":34962
		},
		{
			"buffer":0,
			"byteLength":320,
			"byteOffset":30844,
			"target":34962
		},
		{
			"buffer":0,
			"byteLength":120,
			"byteOffset":31164,
			"target":34963
		},
		{
			"buffer":0,
			"byteLength":768,
			"byteOffset":31284,
			"target":34962
		},
		{
			"buffer":0,
			"byteLength":768,
			"byteOffset":32052,
			"target":34962
		},
		{
			"buffer":0,
			"byteLength":512,
			"byteOffset":32820,
			"target":34962
		},
		{
			"buffer":0,
			"byteLength":192,
			"byteOffset":33332,
			"target":34963
		},
		{
			"buffer":0,
			"byteLength":2112,
			"byteOffset":33524,
			"target":34962
		},
		{
			"buffer":0,
			"byteLength":2112,
			"byteOffset":35636,
			"target":34962
		},
		{
			"buffer":0,
			"byteLength":1408,
			"byteOffset":37748,
			"target":34962
		},
		{
			"buffer":0,
			"byteLength":528,
			"byteOffset":39156,
			"target":34963
		},
		{
			"buffer":0,
			"byteLength":33132,
			"byteOffset":39684,
			"target":34962
		},
		{
			"buffer":0,
			"byteLength":33132,
			"byteOffset":72816,
			"target":34962
		},
		{
			"buffer":0,
			"byteLength":22088,
			"byteOffset":105948,
			"target":34962
		},
		{
			"buffer":0,
			"byteLength":10680,
			"byteOffset":128036,
			"target":34963
		},
		{
			"buffer":0,
			"byteLength":4608,
			"byteOffset":138716,
			"target":34962
		},
		{
			"buffer":0,
			"byteLength":4608,
			"byteOffset":143324,
			"target":34962
		},
		{
			"buffer":0,
			"byteLength":3072,
			"byteOffset":147932,
			"target":34962
		},
		{
			"buffer":0,
			"byteLength":1224,
			"byteOffset":151004,
			"target":34963
		},
		{
			"buffer":0,
			"byteLength":3408,
			"byteOffset":152228,
			"target":34962
		},
		{
			"buffer":0,
			"byteLength":3408,
			"byteOffset":155636,
			"target":34962
		},
		{
			"buffer":0,
			"byteLength":2272,
			"byteOffset":159044,
			"target":34962
		},
		{
			"buffer":0,
			"byteLength":840,
			"byteOffset":161316,
			"target":34963
		},
		{
			"buffer":0,
			"byteLength":96,
			"byteOffset":162156,
			"target":34962
		},
		{
			"buffer":0,
			"byteLength":96,
			"byteOffset":162252,
			"target":34962
		},
		{
			"buffer":0,
			"byteLength":64,
			"byteOffset":162348,
			"target":34962
		},
		{
			"buffer":0,
			"byteLength":24,
			"byteOffset":162412,
			"target":34963
		},
		{
			"buffer":0,
			"byteLength":13056,
			"byteOffset":162436,
			"target":34962
		},
		{
			"buffer":0,
			"byteLength":13056,
			"byteOffset":175492,
			"target":34962
		},
		{
			"buffer":0,
			"byteLength":8704,
			"byteOffset":188548,
			"target":34962
		},
		{
			"buffer":0,
			"byteLength":3888,
			"byteOffset":197252,
			"target":34963
		},
		{
			"buffer":0,
			"byteLength":10368,
			"byteOffset":201140,
			"target":34962
		},
		{
			"buffer":0,
			"byteLength":10368,
			"byteOffset":211508,
			"target":34962
		},
		{
			"buffer":0,
			"byteLength":6912,
			"byteOffset":221876,
			"target":34962
		},
		{
			"buffer":0,
			"byteLength":2592,
			"byteOffset":228788,
			"target":34963
		},
		{
			"buffer":0,
			"byteLength":13056,
			"byteOffset":231380,
			"target":34962
		},
		{
			"buffer":0,
			"byteLength":13056,
			"byteOffset":244436,
			"target":34962
		},
		{
			"buffer":0,
			"byteLength":8704,
			"byteOffset":257492,
			"target":34962
		},
		{
			"buffer":0,
			"byteLength":10368,
			"byteOffset":266196,
			"target":34962
		},
		{
			"buffer":0,
			"byteLength":10368,
			"byteOffset":276564,
			"target":34962
		},
		{
			"buffer":0,
			"byteLength":6912,
			"byteOffset":286932,
			"target":34962
		},
		{
			"buffer":0,
			"byteLength":3624,
			"byteOffset":293844,
			"target":34962
		},
		{
			"buffer":0,
			"byteLength":3624,
			"byteOffset":297468,
			"target":34962
		},
		{
			"buffer":0,
			"byteLength":2416,
			"byteOffset":301092,
			"target":34962
		},
		{
			"buffer":0,
			"byteLength":1368,
			"byteOffset":303508,
			"target":34963
		},
		{
			"buffer":0,
			"byteLength":13152,
			"byteOffset":304876,
			"target":34962
		},
		{
			"buffer":0,
			"byteLength":13152,
			"byteOffset":318028,
			"target":34962
		},
		{
			"buffer":0,
			"byteLength":8768,
			"byteOffset":331180,
			"target":34962
		},
		{
			"buffer":0,
			"byteLength":3384,
			"byteOffset":339948,
			"target":34963
		},
		{
			"buffer":0,
			"byteLength":192,
			"byteOffset":343332,
			"target":34962
		},
		{
			"buffer":0,
			"byteLength":192,
			"byteOffset":343524,
			"target":34962
		},
		{
			"buffer":0,
			"byteLength":128,
			"byteOffset":343716,
			"target":34962
		},
		{
			"buffer":0,
			"byteLength":48,
			"byteOffset":343844,
			"target":34963
		},
		{
			"buffer":0,
			"byteLength":144,
			"byteOffset":343892,
			"target":34962
		},
		{
			"buffer":0,
			"byteLength":144,
			"byteOffset":344036,
			"target":34962
		},
		{
			"buffer":0,
			"byteLength":96,
			"byteOffset":344180,
			"target":34962
		},
		{
			"buffer":0,
			"byteLength":48,
			"byteOffset":344276,
			"target":34963
		},
		{
			"buffer":0,
			"byteLength":288,
			"byteOffset":344324,
			"target":34962
		},
		{
			"buffer":0,
			"byteLength":288,
			"byteOffset":344612,
			"target":34962
		},
		{
			"buffer":0,
			"byteLength":192,
			"byteOffset":344900,
			"target":34962
		},
		{
			"buffer":0,
			"byteLength":72,
			"byteOffset":345092,
			"target":34963
		}
	],
	"buffers":[
		{
			"byteLength":345164,
			"uri":"data:application/octet-stream;base64,"
		}
	]
}
