{
	"asset":{
		"generator":"Khronos glTF Blender I/O v3.6.27",
		"version":"2.0"
	},
	"extensionsUsed":[
		"KHR_materials_clearcoat"
	],
	"scene":0,
	"scenes":[
		{
			"name":"Scene",
			"nodes":[
				0,
				1
			]
		}
	],
	"nodes":[
		{
			"mesh":0,
			"name":"Duck"
		},
		{
			"mesh":1,
			"name":"Duck.001",
			"translation":[
				0,
				0.000495903950650245,
				0.0011467778822407126
			]
		}
	],
	"materials":[
		{
			"doubleSided":true,
			"extensions":{
				"KHR_materials_clearcoat":{
					"clearcoatFactor":0.41363632678985596,
					"clearcoatRoughnessFactor":0.02545454539358616
				}
			},
			"name":"Material.002",
			"pbrMetallicRoughness":{
				"baseColorFactor":[
					0.5484918355941772,
					0.5567326545715332,
					0.5188212990760803,
					1
				],
				"metallicFactor":0,
				"roughnessFactor":0.209090918302536
			}
		},
		{
			"doubleSided":true,
			"extensions":{
				"KHR_materials_clearcoat":{
					"clearcoatFactor":0.290909081697464,
					"clearcoatRoughnessFactor":0.029999999329447746
				}
			},
			"name":"Material.003",
			"pbrMetallicRoughness":{
				"baseColorFactor":[
					0.8970926403999329,
					0.2854045331478119,
					0.017431918531656265,
					1
				],
				"metallicFactor":0,
				"roughnessFactor":0.3590909242630005
			}
		},
		{
			"alphaMode":"BLEND",
			"doubleSided":true,
			"name":"Material",
			"pbrMetallicRoughness":{
				"baseColorTexture":{
					"index":0
				},
				"metallicFactor":0,
				"roughnessFactor":0.5
			}
		}
	],
	"meshes":[
		{
			"name":"Torus",
			"primitives":[
				{
					"attributes":{
						"POSITION":0,
						"NORMAL":1,
						"TEXCOORD_0":2,
						"TEXCOORD_1":3
					},
					"indices":4,
					"material":0
				},
				{
					"attributes":{
						"POSITION":5,
						"NORMAL":6,
						"TEXCOORD_0":7,
						"TEXCOORD_1":8
					},
					"indices":9,
					"material":1
				}
			]
		},
		{
			"name":"Torus.002",
			"primitives":[
				{
					"attributes":{
						"POSITION":10,
						"NORMAL":11,
						"TEXCOORD_0":12,
						"TEXCOORD_1":13
					},
					"indices":14,
					"material":2
				}
			]
		}
	],
	"textures":[
		{
			"sampler":0,
			"source":0
		}
	],
	"images":[
		{
			"bufferView":15,
			"mimeType":"image/png",
			"name":"sticker"
		}
	],
	"accessors":[
		{
			"bufferView":0,
			"componentType":5126,
			"count":14952,
			"max":[
				2.2197322845458984,
				2.3169124126434326,
				2.1042816638946533
			],
			"min":[
				-2.2043304443359375,
				-1.049849033355713,
				-2.358342170715332
			],
			"type":"VEC3"
		},
		{
			"bufferView":1,
			"componentType":5126,
			"count":14952,
			"type":"VEC3"
		},
		{
			"bufferView":2,
			"componentType":5126,
			"count":14952,
			"type":"VEC2"
		},
		{
			"bufferView":3,
			"componentType":5126,
			"count":14952,
			"type":"VEC2"
		},
		{
			"bufferView":4,
			"componentType":5123,
			"count":84834,
			"type":"SCALAR"
		},
		{
			"bufferView":5,
			"componentType":5126,
			"count":1392,
			"max":[
				0.49567320942878723,
				1.428490161895752,
				2.4451215267181396
			],
			"min":[
				-0.49381473660469055,
				0.9578191637992859,
				1.6627576351165771
			],
			"type":"VEC3"
		},
		{
			"bufferView":6,
			"componentType":5126,
			"count":1392,
			"type":"VEC3"
		},
		{
			"bufferView":7,
			"componentType":5126,
			"count":1392,
			"type":"VEC2"
		},
		{
			"bufferView":8,
			"componentType":5126,
			"count":1392,
			"type":"VEC2"
		},
		{
			"bufferView":9,
			"componentType":5123,
			"count":8520,
			"type":"SCALAR"
		},
		{
			"bufferView":10,
			"componentType":5126,
			"count":3481,
			"max":[
				0.5920015573501587,
				2.2071545124053955,
				1.852810263633728
			],
			"min":[
				-0.5900034308433533,
				1.3169764280319214,
				1.4163604974746704
			],
			"type":"VEC3"
		},
		{
			"bufferView":11,
			"componentType":5126,
			"count":3481,
			"type":"VEC3"
		},
		{
			"bufferView":12,
			"componentType":5126,
			"count":3481,
			"type":"VEC2"
		},
		{
			"bufferView":13,
			"componentType":5126,
			"count":3481,
			"type":"VEC2"
		},
		{
			"bufferView":14,
			"componentType":5123,
			"count":20160,
			"type":"SCALAR"
		}
	],
	"bufferViews":[
		{
			"buffer":0,
			"byteLength":179424,
			"byteOffset":0,
			"target":34962
		},
		{
			"buffer":0,
			"byteLength":179424,
			"byteOffset":179424,
			"target":34962
		},
		{
			"buffer":0,
			"byteLength":119616,
			"byteOffset":358848,
			"target":34962
		},
		{
			"buffer":0,
			"byteLength":119616,
			"byteOffset":478464,
			"target":34962
		},
		{
			"buffer":0,
			"byteLength":169668,
			"byteOffset":598080,
			"target":34963
		},
		{
			"buffer":0,
			"byteLength":16704,
			"byteOffset":767748,
			"target":34962
		},
		{
			"buffer":0,
			"byteLength":16704,
			"byteOffset":784452,
			"target":34962
		},
		{
			"buffer":0,
			"byteLength":11136,
			"byteOffset":801156,
			"target":34962
		},
		{
			"buffer":0,
			"byteLength":11136,
			"byteOffset":812292,
			"target":34962
		},
		{
			"buffer":0,
			"byteLength":17040,
			"byteOffset":823428,
			"target":34963
		},
		{
			"buffer":0,
			"byteLength":41772,
			"byteOffset":840468,
			"target":34962
		},
		{
			"buffer":0,
			"byteLength":41772,
			"byteOffset":882240,
			"target":34962
		},
		{
			"buffer":0,
			"byteLength":27848,
			"byteOffset":924012,
			"target":34962
		},
		{
			"buffer":0,
			"byteLength":27848,
			"byteOffset":951860,
			"target":34962
		},
		{
			"buffer":0,
			"byteLength":40320,
			"byteOffset":979708,
			"target":34963
		},
		{
			"buffer":0,
			"byteLength":104511,
			"byteOffset":1020028
		}
	],
	"samplers":[
		{
			"magFilter":9729,
			"minFilter":9987,
			"wrapS":33071,
			"wrapT":33071
		}
	],
	"buffers":[
		{
			"byteLength":1124540,
			"uri":"data:application/octet-stream;base64,"
		}
	]
}
