{
	"asset":{
		"generator":"Khronos glTF Blender I/O v3.6.27",
		"version":"2.0"
	},
	"extensionsUsed":[
		"KHR_materials_specular",
		"KHR_materials_ior"
	],
	"scene":0,
	"scenes":[
		{
			"name":"Scene",
			"nodes":[
				0
			]
		}
	],
	"nodes":[
		{
			"mesh":0,
			"name":"grenade",
			"rotation":[
				0.7071068286895752,
				0,
				0,
				0.7071068286895752
			]
		}
	],
	"materials":[
		{
			"doubleSided":true,
			"extensions":{
				"KHR_materials_specular":{
					"specularColorFactor":[
						0.474271529955476,
						0.474271529955476,
						0.474271529955476
					]
				},
				"KHR_materials_ior":{
					"ior":1.4500000476837158
				}
			},
			"name":"Default",
			"normalTexture":{
				"index":0
			},
			"pbrMetallicRoughness":{
				"baseColorTexture":{
					"index":1
				},
				"metallicRoughnessTexture":{
					"index":2
				}
			}
		}
	],
	"meshes":[
		{
			"name":"grenade",
			"primitives":[
				{
					"attributes":{
						"POSITION":0,
						"NORMAL":1,
						"TEXCOORD_0":2
					},
					"indices":3,
					"material":0
				}
			]
		}
	],
	"textures":[
		{
			"sampler":0,
			"source":0
		},
		{
			"sampler":0,
			"source":1
		},
		{
			"sampler":0,
			"source":2
		}
	],
	"images":[
		{
			"mimeType":"image/png",
			"name":"gg_Normal",
			"uri":"texture/gg_Normal.png"
		},
		{
			"mimeType":"image/png",
			"name":"gg_Albedo",
			"uri":"texture/gg_Albedo.png"
		},
		{
			"mimeType":"image/png",
			"name":"gg_Metallic.png-gg_roughness.png",
			"uri":"texture/gg_Metallic_png-gg_roughness_png.png"
		}
	],
	"accessors":[
		{
			"bufferView":0,
			"componentType":5126,
			"count":6214,
			"max":[
				2.691406011581421,
				2.20078706741333,
				6.7090888023376465
			],
			"min":[
				-3.430543899536133,
				-3.298935890197754,
				-6.656731128692627
			],
			"type":"VEC3"
		},
		{
			"bufferView":1,
			"componentType":5126,
			"count":6214,
			"type":"VEC3"
		},
		{
			"bufferView":2,
			"componentType":5126,
			"count":6214,
			"type":"VEC2"
		},
		{
			"bufferView":3,
			"componentType":5123,
			"count":25056,
			"type":"SCALAR"
		}
	],
	"bufferViews":[
		{
			"buffer":0,
			"byteLength":74568,
			"byteOffset":0,
			"target":34962
		},
		{
			"buffer":0,
			"byteLength":74568,
			"byteOffset":74568,
			"target":34962
		},
		{
			"buffer":0,
			"byteLength":49712,
			"byteOffset":149136,
			"target":34962
		},
		{
			"buffer":0,
			"byteLength":50112,
			"byteOffset":198848,
			"target":34963
		}
	],
	"samplers":[
		{
			"magFilter":9729,
			"minFilter":9987
		}
	],
	"buffers":[
		{
			"byteLength":248960,
			"uri":"flashbang.bin"
		}
	]
}
